<svg id="visual" viewBox="0 0 900 450" width="900" height="450" xmlns="http://www.w3.org/2000/svg" xmlns:xlink="http://www.w3.org/1999/xlink" version="1.1"><rect x="0" y="0" width="900" height="450" fill="#C62368"></rect><path d="M0 124L21.5 126.5C43 129 86 134 128.8 143C171.7 152 214.3 165 257.2 163.7C300 162.3 343 146.7 385.8 141.8C428.7 137 471.3 143 514.2 148.8C557 154.7 600 160.3 642.8 155.8C685.7 151.3 728.3 136.7 771.2 134.5C814 132.3 857 142.7 878.5 147.8L900 153L900 0L878.5 0C857 0 814 0 771.2 0C728.3 0 685.7 0 642.8 0C600 0 557 0 514.2 0C471.3 0 428.7 0 385.8 0C343 0 300 0 257.2 0C214.3 0 171.7 0 128.8 0C86 0 43 0 21.5 0L0 0Z" fill="#c62368"></path><path d="M0 104L21.5 101.8C43 99.7 86 95.3 128.8 98C171.7 100.7 214.3 110.3 257.2 116.5C300 122.7 343 125.3 385.8 121.7C428.7 118 471.3 108 514.2 111.2C557 114.3 600 130.7 642.8 135C685.7 139.3 728.3 131.7 771.2 127.8C814 124 857 124 878.5 124L900 124L900 0L878.5 0C857 0 814 0 771.2 0C728.3 0 685.7 0 642.8 0C600 0 557 0 514.2 0C471.3 0 428.7 0 385.8 0C343 0 300 0 257.2 0C214.3 0 171.7 0 128.8 0C86 0 43 0 21.5 0L0 0Z" fill="#d53867"></path><path d="M0 114L21.5 107.5C43 101 86 88 128.8 79.8C171.7 71.7 214.3 68.3 257.2 67.3C300 66.3 343 67.7 385.8 76.3C428.7 85 471.3 101 514.2 108.8C557 116.7 600 116.3 642.8 112.7C685.7 109 728.3 102 771.2 99C814 96 857 97 878.5 97.5L900 98L900 0L878.5 0C857 0 814 0 771.2 0C728.3 0 685.7 0 642.8 0C600 0 557 0 514.2 0C471.3 0 428.7 0 385.8 0C343 0 300 0 257.2 0C214.3 0 171.7 0 128.8 0C86 0 43 0 21.5 0L0 0Z" fill="#e34c67"></path><path d="M0 73L21.5 73C43 73 86 73 128.8 72.7C171.7 72.3 214.3 71.7 257.2 71.7C300 71.7 343 72.3 385.8 68C428.7 63.7 471.3 54.3 514.2 53.7C557 53 600 61 642.8 60.8C685.7 60.7 728.3 52.3 771.2 52C814 51.7 857 59.3 878.5 63.2L900 67L900 0L878.5 0C857 0 814 0 771.2 0C728.3 0 685.7 0 642.8 0C600 0 557 0 514.2 0C471.3 0 428.7 0 385.8 0C343 0 300 0 257.2 0C214.3 0 171.7 0 128.8 0C86 0 43 0 21.5 0L0 0Z" fill="#ef5f67"></path><path d="M0 54L21.5 49.7C43 45.3 86 36.7 128.8 34.7C171.7 32.7 214.3 37.3 257.2 41.7C300 46 343 50 385.8 51.3C428.7 52.7 471.3 51.3 514.2 50.5C557 49.7 600 49.3 642.8 44.3C685.7 39.3 728.3 29.7 771.2 27.3C814 25 857 30 878.5 32.5L900 35L900 0L878.5 0C857 0 814 0 771.2 0C728.3 0 685.7 0 642.8 0C600 0 557 0 514.2 0C471.3 0 428.7 0 385.8 0C343 0 300 0 257.2 0C214.3 0 171.7 0 128.8 0C86 0 43 0 21.5 0L0 0Z" fill="#fa7268"></path></svg>